<svg width="24" height="30" viewBox="0 0 24 30" fill="none" xmlns="http://www.w3.org/2000/svg">
<path fill-rule="evenodd" clip-rule="evenodd" d="M0.75 29.0625V3.75C0.75 2.75544 1.14509 1.80161 1.84835 1.09835C2.55161 0.395088 3.50544 0 4.5 0L19.5 0C20.4946 0 21.4484 0.395088 22.1516 1.09835C22.8549 1.80161 23.25 2.75544 23.25 3.75V29.0625C23.2501 29.2253 23.2078 29.3853 23.1273 29.5268C23.0468 29.6683 22.9308 29.7864 22.7908 29.8695C22.6508 29.9525 22.4916 29.9977 22.3288 30.0005C22.166 30.0034 22.0053 29.9638 21.8625 29.8856L12 24.5044L2.1375 29.8856C1.99468 29.9638 1.83397 30.0034 1.6712 30.0005C1.50842 29.9977 1.34919 29.9525 1.20917 29.8695C1.06916 29.7864 0.953184 29.6683 0.872671 29.5268C0.792158 29.3853 0.749881 29.2253 0.75 29.0625ZM12.9375 8.4375C12.9375 8.18886 12.8387 7.9504 12.6629 7.77459C12.4871 7.59877 12.2486 7.5 12 7.5C11.7514 7.5 11.5129 7.59877 11.3371 7.77459C11.1613 7.9504 11.0625 8.18886 11.0625 8.4375V11.25H8.25C8.00136 11.25 7.7629 11.3488 7.58709 11.5246C7.41127 11.7004 7.3125 11.9389 7.3125 12.1875C7.3125 12.4361 7.41127 12.6746 7.58709 12.8504C7.7629 13.0262 8.00136 13.125 8.25 13.125H11.0625V15.9375C11.0625 16.1861 11.1613 16.4246 11.3371 16.6004C11.5129 16.7762 11.7514 16.875 12 16.875C12.2486 16.875 12.4871 16.7762 12.6629 16.6004C12.8387 16.4246 12.9375 16.1861 12.9375 15.9375V13.125H15.75C15.9986 13.125 16.2371 13.0262 16.4129 12.8504C16.5887 12.6746 16.6875 12.4361 16.6875 12.1875C16.6875 11.9389 16.5887 11.7004 16.4129 11.5246C16.2371 11.3488 15.9986 11.25 15.75 11.25H12.9375V8.4375Z" fill="white"/>
</svg>
